<svg id="Capa_1" data-name="Capa 1" xmlns="http://www.w3.org/2000/svg" viewBox="0 0 200.13 81.07"><defs><style>.cls-1{fill:#303439;}.cls-2{fill:#fff;}</style></defs><title>logo_canela</title><rect class="cls-1" width="200.13" height="81.07"/><path class="cls-2" d="M254.7,450.28c-.07-1-1.35-1.45-3.19-1.45-1.13,0-2.73.27-2.73,1.2s1.7,1.07,3.38,1.26,3.4.45,3.4,1.58-2,1.59-3.5,1.59c-2.32,0-4.21-.55-4.18-2h.61c-.13,1.24,1.61,1.71,3.57,1.71,1.2,0,2.89-.31,2.89-1.29s-1.7-1.13-3.4-1.33-3.38-.43-3.38-1.51,1.77-1.51,3.34-1.51c2.07,0,3.7.51,3.8,1.76Z" transform="translate(-198.24 -380.83)"/><path class="cls-2" d="M262.42,452.21,260.29,449h0l-2.21,3.21Zm-1.83-3.55,3.93,5.67h-.66l-1.25-1.82h-4.76l-1.26,1.82h-.66l4-5.67Z" transform="translate(-198.24 -380.83)"/><polygon class="cls-2" points="66.98 67.83 67.75 67.83 74.02 73.02 74.05 73.02 74.05 67.83 74.66 67.83 74.66 73.49 73.94 73.49 67.62 68.25 67.6 68.25 67.6 73.49 66.98 73.49 66.98 67.83"/><rect class="cls-2" x="76.42" y="67.83" width="0.61" height="5.67"/><polygon class="cls-2" points="77.71 68.13 77.71 67.83 85.32 67.83 85.32 68.13 81.81 68.13 81.81 73.49 81.2 73.49 81.2 68.13 77.71 68.13"/><path class="cls-2" d="M289,452.21,286.86,449h0l-2.21,3.21Zm-1.82-3.55,3.92,5.67h-.65l-1.25-1.82h-4.76l-1.27,1.82h-.65l4-5.67Z" transform="translate(-198.24 -380.83)"/><path class="cls-2" d="M296,451.44c1.44,0,2.53-.38,2.53-1.3S297.28,449,296,449h-3.54v2.48Zm-4.15-2.78H296c1.74,0,3.14.36,3.14,1.46,0,.76-.81,1.32-2.13,1.45v0c1.48.09,1.84.63,1.94,1.21s-.07,1.22.33,1.53h-.68c-.38-.39-.16-1-.27-1.59s-.59-1-2.33-1h-3.54v2.58h-.61Z" transform="translate(-198.24 -380.83)"/><polygon class="cls-2" points="109.04 67.83 109.72 67.83 105.73 71.12 105.73 73.49 105.12 73.49 105.12 71.12 101.15 67.83 101.85 67.83 105.44 70.83 109.04 67.83"/><polygon class="cls-2" points="113.22 67.83 113.84 67.83 116.43 73.12 116.46 73.12 119.09 67.83 119.85 67.83 122.52 73.12 122.55 73.12 125.1 67.83 125.75 67.83 122.9 73.49 122.2 73.49 119.48 68.13 119.45 68.13 116.77 73.49 116.08 73.49 113.22 67.83"/><path class="cls-2" d="M330.14,452.21,328,449h0l-2.22,3.21Zm-1.82-3.55,3.92,5.67h-.65l-1.25-1.82h-4.76l-1.27,1.82h-.65l4-5.67Z" transform="translate(-198.24 -380.83)"/><path class="cls-2" d="M337.1,451.44c1.45,0,2.53-.38,2.53-1.3s-1.2-1.18-2.53-1.18h-3.53v2.48ZM333,448.66h4.15c1.74,0,3.14.36,3.14,1.46,0,.76-.8,1.32-2.13,1.45v0c1.48.09,1.84.63,1.94,1.21s-.07,1.22.33,1.53h-.68c-.37-.39-.15-1-.26-1.59s-.6-1-2.34-1h-3.53v2.58H333Z" transform="translate(-198.24 -380.83)"/><polygon class="cls-2" points="150.22 73.19 150.22 73.49 143.48 73.49 143.48 67.83 150.15 67.83 150.15 68.13 144.09 68.13 144.09 70.4 149.79 70.4 149.79 70.7 144.09 70.7 144.09 73.19 150.22 73.19"/><path class="cls-2" d="M289.58,402.25H262v13.29h27.54v-4.6l6.65.65v2.17a3.43,3.43,0,0,1-1.92,3.43c-1.27.6-3.72.9-7.32.9H264.74c-3.6,0-6.06-.3-7.36-.91a3.42,3.42,0,0,1-1.95-3.42v-9.67a3.43,3.43,0,0,1,1.95-3.43c1.3-.6,3.76-.91,7.36-.91H287c3.6,0,6.05.3,7.32.9a3.45,3.45,0,0,1,1.92,3.44v1.74l-6.65.57Z" transform="translate(-198.24 -380.83)"/><path class="cls-2" d="M334.79,397.59h-28.1v8.19h25q5.3,0,7.25,1.44c1.3,1,2,2.79,2,5.47V416c0,2.7-.63,4.53-1.91,5.49s-3.71,1.44-7.29,1.44H308.53c-3.61,0-6.06-.48-7.37-1.45s-2-2.8-2-5.48v-.81l6.16-1.05v4.71h29.57V410H310c-3.6,0-6.05-.49-7.32-1.46s-1.92-2.8-1.92-5.48v-2.56q0-4,1.92-5.48c1.27-1,3.72-1.46,7.32-1.46h21.16q5.3,0,7.3,1.43t2,5v.61l-5.67,1.2Z" transform="translate(-198.24 -380.83)"/><path class="cls-2" d="M212.52,432v6.46h7.08V436.2l1.71.31v1.05c0,1.66-.54,2.11-2.38,2.11h-5.72c-1.84,0-2.4-.47-2.4-2.11v-4.69c0-1.65.56-2.11,2.4-2.11h5.72c1.84,0,2.38.45,2.38,2.11v.84l-1.71.28v-2Z" transform="translate(-198.24 -380.83)"/><path class="cls-2" d="M233,436.34l-2.75-4.56-2.75,4.56Zm-3.62-5.58h1.82l5.68,8.91H235l-1.3-2.19h-6.91l-1.31,2.19H223.8Z" transform="translate(-198.24 -380.83)"/><path class="cls-2" d="M240.19,430.76h1.07l7.64,6a9.05,9.05,0,0,1,1.17,1.12,11,11,0,0,1-.16-2.19v-4.89h1.56v8.91h-.95l-7.86-6.2a4.31,4.31,0,0,1-1-1,12.77,12.77,0,0,1,.12,1.95v5.25h-1.56Z" transform="translate(-198.24 -380.83)"/><polygon class="cls-2" points="58.53 49.92 68.37 49.92 68.37 51.12 60.23 51.12 60.23 53.6 65.2 53.6 65.2 54.78 60.23 54.78 60.23 57.61 68.45 57.61 68.45 58.84 58.53 58.84 58.53 49.92"/><polygon class="cls-2" points="72.51 49.92 74.21 49.92 74.21 57.59 81.95 57.59 81.95 58.84 72.51 58.84 72.51 49.92"/><path class="cls-2" d="M291.24,436.34l-2.75-4.56-2.75,4.56Zm-3.62-5.58h1.82l5.68,8.91h-1.88l-1.3-2.19H285l-1.31,2.19H282Z" transform="translate(-198.24 -380.83)"/><path class="cls-2" d="M307.31,432v2.49h6.44c1.86,0,2.37.5,2.37,2.1v1c0,1.64-.53,2.11-2.37,2.11h-6c-1.84,0-2.4-.47-2.4-2.11v-.24L307,437v1.44h7.6v-2.68h-6.41c-1.83,0-2.38-.45-2.38-2.11v-.77c0-1.66.55-2.11,2.38-2.11h5.44c1.7,0,2.4.41,2.4,1.95v.19l-1.47.36V432Z" transform="translate(-198.24 -380.83)"/><path class="cls-2" d="M323,431.92V435h5.86c.75,0,1.11-.17,1.11-.93v-1.24c0-.74-.34-.93-1.11-.93Zm-1.7-1.16h8.23c1.49,0,2.16.48,2.16,1.73v2c0,1.25-.67,1.73-2.16,1.73H323v3.47h-1.7Z" transform="translate(-198.24 -380.83)"/><path class="cls-2" d="M337.56,431.92V435h5.86c.75,0,1.11-.15,1.11-.91v-1.3c0-.74-.36-.91-1.11-.91Zm-1.71-1.16h8.24c1.49,0,2.16.48,2.16,1.73v2c0,1.25-.67,1.73-2.16,1.73h-1.5l4.67,3.47h-2.54l-4.15-3.47h-3v3.47h-1.71Z" transform="translate(-198.24 -380.83)"/><rect class="cls-2" x="152.7" y="49.93" width="1.7" height="8.91"/><path class="cls-2" d="M357.94,430.76H359l7.65,6a8.44,8.44,0,0,1,1.16,1.12,11.72,11.72,0,0,1-.15-2.19v-4.89h1.56v8.91h-1l-7.86-6.2a4.31,4.31,0,0,1-1-1,12.77,12.77,0,0,1,.12,1.95v5.25h-1.57Z" transform="translate(-198.24 -380.83)"/><path class="cls-2" d="M376.1,432v6.46h8v-2.61H380v-1.14h5.84v2.88c0,1.64-.56,2.11-2.4,2.11h-6.61c-1.82,0-2.4-.45-2.4-2.11v-4.69c0-1.66.58-2.11,2.4-2.11h6.61c1.76,0,2.4.43,2.4,2V433l-1.71.29V432Z" transform="translate(-198.24 -380.83)"/></svg>