<svg id="Capa_1" data-name="Capa 1" xmlns="http://www.w3.org/2000/svg" viewBox="0 0 27.93 17.27"><defs><style>.cls-1{fill:#1d1d1b;fill-rule:evenodd;}.cls-2,.cls-3,.cls-5{fill:none;}.cls-2,.cls-5{stroke:#1d1d1b;}.cls-2,.cls-3{stroke-miterlimit:22.93;stroke-width:0.15px;}.cls-3{stroke:#fff;}.cls-4{fill:#fff;}.cls-5{stroke-linecap:round;stroke-linejoin:round;stroke-width:0.13px;}</style></defs><title>centro</title><polygon class="cls-1" points="1.07 7.58 19.77 13.53 26.52 11.39 26.52 10.07 7.83 4.12 1.1 6.26 1.07 7.58"/><polygon class="cls-2" points="1.07 7.58 19.77 13.53 26.52 11.39 26.52 10.07 7.83 4.12 1.1 6.26 1.07 7.58"/><polyline class="cls-3" points="1.1 6.26 19.8 12.22 26.52 10.07"/><path class="cls-4" d="M19.88,11.17a2.1,2.1,0,0,0,1.17-.24A5.67,5.67,0,0,0,23.44,9a.43.43,0,0,0-.09-.65,8,8,0,0,0-2.66-1.07,3.66,3.66,0,0,0-2.45.36,8.77,8.77,0,0,0-1.4.73C15.59,9.39,19.22,11.09,19.88,11.17Z"/><path class="cls-5" d="M19.88,11.17a2.1,2.1,0,0,0,1.17-.24A5.67,5.67,0,0,0,23.44,9a.43.43,0,0,0-.09-.65,8,8,0,0,0-2.66-1.07,3.66,3.66,0,0,0-2.45.36,8.77,8.77,0,0,0-1.4.73C15.59,9.39,19.22,11.09,19.88,11.17Z"/><path class="cls-4" d="M23.23,8.38a7.24,7.24,0,0,0-3.05-1.11,4,4,0,0,0-2,.49c-1.06.57-1.56.89-1.32,1.15A5.74,5.74,0,0,0,19.12,10,4.15,4.15,0,0,0,22,9.7s.86-.53,1-.68S23.43,8.53,23.23,8.38Z"/><path class="cls-5" d="M23.23,8.38a7.24,7.24,0,0,0-3.05-1.11,4,4,0,0,0-2,.49c-1.06.57-1.56.89-1.32,1.15A5.74,5.74,0,0,0,19.12,10,4.15,4.15,0,0,0,22,9.7s.86-.53,1-.68S23.43,8.53,23.23,8.38Z"/><path class="cls-5" d="M23.54,8.81a7.56,7.56,0,0,1-1.77,1.1,3.62,3.62,0,0,1-1.86.39,6.45,6.45,0,0,1-3.32-1.36"/><path class="cls-5" d="M20.47,10.12a.77.77,0,0,0-.4-.1.72.72,0,0,0-.39.09"/></svg>