<svg id="Capa_1" data-name="Capa 1" xmlns="https://www.w3.org/2000/svg" viewBox="0 0 27.93 17.27"><defs><style>.cls-1{fill:#1d1d1b;fill-rule:evenodd;}.cls-2,.cls-3,.cls-5{fill:none;}.cls-2,.cls-5{stroke:#1d1d1b;}.cls-2,.cls-3{stroke-miterlimit:22.93;stroke-width:0.15px;}.cls-3{stroke:#fff;}.cls-4{fill:#fff;}.cls-5{stroke-linecap:round;stroke-linejoin:round;stroke-width:0.13px;}</style></defs><title>izquierda</title><polygon class="cls-1" points="1.18 7.58 19.88 13.53 26.63 11.39 26.63 10.07 7.93 4.12 1.21 6.26 1.18 7.58"/><polygon class="cls-2" points="1.18 7.58 19.88 13.53 26.63 11.39 26.63 10.07 7.93 4.12 1.21 6.26 1.18 7.58"/><polyline class="cls-3" points="1.21 6.26 19.91 12.22 26.63 10.07"/><path class="cls-4" d="M8,7.24A2.1,2.1,0,0,0,9.13,7a5.67,5.67,0,0,0,2.39-1.93.43.43,0,0,0-.09-.65A8,8,0,0,0,8.77,3.35a3.66,3.66,0,0,0-2.45.36,8.77,8.77,0,0,0-1.4.73C3.67,5.46,7.3,7.16,8,7.24Z"/><path class="cls-5" d="M8,7.24A2.1,2.1,0,0,0,9.13,7a5.67,5.67,0,0,0,2.39-1.93.43.43,0,0,0-.09-.65A8,8,0,0,0,8.77,3.35a3.66,3.66,0,0,0-2.45.36,8.77,8.77,0,0,0-1.4.73C3.67,5.46,7.3,7.16,8,7.24Z"/><path class="cls-4" d="M11.31,4.45A7.24,7.24,0,0,0,8.26,3.34a4,4,0,0,0-2,.49C5.19,4.4,4.69,4.72,4.93,5A5.74,5.74,0,0,0,7.2,6.08,4.09,4.09,0,0,0,10,5.77s.86-.53,1-.68S11.51,4.6,11.31,4.45Z"/><path class="cls-5" d="M11.31,4.45A7.24,7.24,0,0,0,8.26,3.34a4,4,0,0,0-2,.49C5.19,4.4,4.69,4.72,4.93,5A5.74,5.74,0,0,0,7.2,6.08,4.09,4.09,0,0,0,10,5.77s.86-.53,1-.68S11.51,4.6,11.31,4.45Z"/><path class="cls-5" d="M11.62,4.88A7.56,7.56,0,0,1,9.85,6,3.62,3.62,0,0,1,8,6.37,6.45,6.45,0,0,1,4.67,5"/><path class="cls-5" d="M8.55,6.19a.77.77,0,0,0-.4-.1.72.72,0,0,0-.39.09"/></svg>