<svg id="Capa_1" data-name="Capa 1" xmlns="http://www.w3.org/2000/svg" viewBox="0 0 54.68 51.48"><defs><style>.cls-1{fill:#1d1d1b;}.cls-1,.cls-2{fill-rule:evenodd;}.cls-2{fill:#fff;}</style></defs><title>MUEBLE</title><polygon class="cls-1" points="0.83 13.14 0.83 0.29 30.2 10.08 30.2 22.11 0.83 13.14"/><polygon class="cls-2" points="9.47 8.73 9.47 6.71 21.56 10.74 21.56 12.43 9.47 8.73"/><polygon class="cls-1" points="30.2 22.11 54.11 14.55 54.11 11.25 30.2 18.81 30.2 22.11"/><polygon class="cls-1" points="0.83 27.48 0.83 14.63 30.2 24.42 30.2 36.45 0.83 27.48"/><polygon class="cls-2" points="9.47 23.08 9.47 21.05 21.56 25.08 21.56 26.77 9.47 23.08"/><polygon class="cls-1" points="30.2 36.45 54.11 28.9 54.11 25.59 30.2 33.15 30.2 36.45"/><polygon class="cls-1" points="0.83 41.83 0.83 28.98 30.2 38.77 30.2 50.8 0.83 41.83"/><polygon class="cls-2" points="9.47 37.42 9.47 35.39 21.56 39.43 21.56 41.12 9.47 37.42"/><polygon class="cls-1" points="30.2 50.8 54.11 43.24 54.11 39.94 30.2 47.5 30.2 50.8"/></svg>