<svg id="Capa_1" data-name="Capa 1" xmlns="https://www.w3.org/2000/svg" viewBox="0 0 161.75 154.4"><defs><style>.cls-1{font-size:7.24px;fill:#9f9d9c;font-family:Exo2-Light, "Exo 2";font-weight:300;}.cls-2{fill:none;stroke:#595958;stroke-width:0.5px;}.cls-3{fill:#fff;}.cls-4{letter-spacing:-0.03em;}.cls-5{letter-spacing:0em;}</style></defs><text class="cls-1" transform="translate(5.86 6.12)">18 mm</text><rect class="cls-2" x="33.13" y="0.88" width="71.36" height="5.41"/><line class="cls-3" x1="30.64" y1="0.88" x2="30.64" y2="6.29"/><line class="cls-3" x1="29.52" y1="0.88" x2="31.77" y2="0.88"/><line class="cls-3" x1="29.52" y1="6.29" x2="31.77" y2="6.29"/><text class="cls-1" transform="translate(111.14 1.58) rotate(90)">180 mm</text><line class="cls-3" x1="106.98" y1="0.88" x2="106.98" y2="26.84"/><line class="cls-3" x1="105.85" y1="0.88" x2="108.1" y2="0.88"/><line class="cls-3" x1="105.85" y1="26.84" x2="108.1" y2="26.84"/><path class="cls-2" d="M130.93,128.62h-52s4.7,19.8,13.7,19.8h24.63C126.23,148.42,130.93,128.62,130.93,128.62Z" transform="translate(-36.1 -121.57)"/><text class="cls-1" transform="translate(49.03 45.59)">810-910<tspan class="cls-4" x="26.17" y="0">-</tspan><tspan class="cls-5" x="29.26" y="0">1010</tspan><tspan class="cls-4" x="43.55" y="0">-</tspan><tspan x="46.65" y="0">1210 mm</tspan></text><text class="cls-1" transform="translate(49.03 107.39)">810-910<tspan class="cls-4" x="26.17" y="0">-</tspan><tspan class="cls-5" x="29.26" y="0">1010</tspan><tspan class="cls-4" x="43.55" y="0">-</tspan><tspan x="46.65" y="0">1210 mm</tspan></text><text class="cls-1" transform="translate(6.12 85.13) rotate(-90)">460 mm</text><text class="cls-1" transform="translate(6.12 146.93) rotate(-90)">460 mm</text><line class="cls-3" x1="8.95" y1="51.68" x2="8.95" y2="92.59"/><line class="cls-3" x1="7.83" y1="51.68" x2="10.08" y2="51.68"/><line class="cls-3" x1="7.83" y1="92.59" x2="10.08" y2="92.59"/><line class="cls-3" x1="8.95" y1="113.48" x2="8.95" y2="154.4"/><line class="cls-3" x1="7.83" y1="113.48" x2="10.08" y2="113.48"/><line class="cls-3" x1="7.83" y1="154.4" x2="10.08" y2="154.4"/><line class="cls-3" x1="161.5" y1="48.89" x2="11.88" y2="48.89"/><line class="cls-3" x1="161.5" y1="47.77" x2="161.5" y2="50.02"/><line class="cls-3" x1="11.88" y1="47.77" x2="11.88" y2="50.02"/><line class="cls-3" x1="161.5" y1="110.69" x2="11.88" y2="110.69"/><line class="cls-3" x1="161.5" y1="109.57" x2="161.5" y2="111.82"/><line class="cls-3" x1="11.88" y1="109.57" x2="11.88" y2="111.82"/><rect class="cls-2" x="11.57" y="51.77" width="149.93" height="40.57"/><rect class="cls-2" x="11.57" y="113.57" width="149.93" height="40.57"/><rect class="cls-2" x="25.77" y="62" width="61.93" height="24.36" rx="5.67"/><circle class="cls-2" cx="56.74" cy="56.79" r="1.54"/><circle class="cls-2" cx="56.74" cy="74.18" r="2.88"/><rect class="cls-2" x="85.36" y="123.81" width="61.93" height="24.36" rx="5.67"/><circle class="cls-2" cx="116.32" cy="118.59" r="1.54"/><circle class="cls-2" cx="116.32" cy="135.99" r="2.88"/></svg>